<svg width="26" height="26" viewBox="0 0 26 26" fill="none" xmlns="http://www.w3.org/2000/svg">
<path d="M26 11.4743C26 9.37292 24.4611 7.62422 22.4511 7.29571C21.82 4.54507 19.3582 2.54393 16.4749 2.54393C13.8962 2.54393 11.5978 4.17072 10.7192 6.55725C7.72189 7.24215 5.33981 9.62509 4.71066 12.6967C2.05722 13.037 0 15.31 0 18.0543C0 21.0329 2.4232 23.4561 5.40173 23.4561H19.5865C22.5651 23.4561 24.9883 21.0329 24.9883 18.0543C24.9883 16.9365 24.6468 15.897 24.0629 15.0344C25.2536 14.2706 26 12.9479 26 11.4743ZM16.475 4.15217C18.7675 4.15217 20.6987 5.86603 20.9673 8.1388L21.0511 8.84858H21.7658C23.2138 8.84858 24.3918 10.0265 24.3918 11.4743C24.3918 12.4873 23.8236 13.3858 22.9417 13.8241C22.1899 13.2266 21.276 12.8248 20.2776 12.6966C19.5347 9.06982 16.348 6.40318 12.5902 6.35837C13.3924 5.01859 14.8587 4.15217 16.475 4.15217ZM19.5865 21.8478H5.40173C3.30999 21.8478 1.60825 20.1461 1.60825 18.0543C1.60825 15.9626 3.31009 14.2609 5.402 14.2609H6.1167L6.20054 13.5511C6.57677 10.3668 9.28243 7.9656 12.4941 7.9656C15.7058 7.9656 18.4114 10.3668 18.7877 13.5511L18.8715 14.2609H19.5862C21.678 14.2609 23.3799 15.9626 23.3799 18.0543C23.3799 20.1461 21.6783 21.8478 19.5865 21.8478Z" fill="#1F1F24"/>
</svg>
