<svg width="26" height="26" viewBox="0 0 26 26" fill="none" xmlns="http://www.w3.org/2000/svg">
<path d="M5.14293 25.5116C5.01546 25.5131 4.88969 25.4824 4.7773 25.4222C4.58594 25.3248 4.44091 25.1556 4.37393 24.9516C4.30694 24.7476 4.32343 24.5254 4.4198 24.3335L6.0448 21.0835C6.08775 20.9803 6.15152 20.8872 6.23211 20.8098C6.3127 20.7324 6.40838 20.6725 6.51318 20.6337C6.61798 20.595 6.72964 20.5783 6.84119 20.5847C6.95274 20.591 7.06178 20.6203 7.16148 20.6707C7.26119 20.7212 7.34943 20.7916 7.42069 20.8777C7.49194 20.9637 7.54469 21.0635 7.57562 21.1709C7.60655 21.2783 7.615 21.3909 7.60045 21.5016C7.5859 21.6124 7.54866 21.719 7.49105 21.8147L5.86605 25.0647C5.79853 25.1987 5.69523 25.3114 5.56759 25.3903C5.43996 25.4692 5.29297 25.5112 5.14293 25.5116Z" fill="#1F1F24"/>
<path d="M10.5596 25.5116C10.4321 25.5131 10.3063 25.4824 10.1939 25.4222C10.0026 25.3248 9.85754 25.1556 9.79055 24.9516C9.72356 24.7476 9.74006 24.5254 9.83643 24.3335L11.4614 21.0835C11.5044 20.9803 11.5681 20.8872 11.6487 20.8098C11.7293 20.7324 11.825 20.6725 11.9298 20.6337C12.0346 20.595 12.1463 20.5783 12.2578 20.5847C12.3694 20.591 12.4784 20.6203 12.5781 20.6707C12.6778 20.7212 12.7661 20.7916 12.8373 20.8777C12.9086 20.9637 12.9613 21.0635 12.9922 21.1709C13.0232 21.2783 13.0316 21.3909 13.0171 21.5016C13.0025 21.6124 12.9653 21.719 12.9077 21.8147L11.2827 25.0647C11.2152 25.1987 11.1119 25.3114 10.9842 25.3903C10.8566 25.4692 10.7096 25.5112 10.5596 25.5116Z" fill="#1F1F24"/>
<path d="M15.9762 25.5116C15.8487 25.5131 15.7229 25.4824 15.6106 25.4222C15.4192 25.3248 15.2742 25.1556 15.2072 24.9516C15.1402 24.7476 15.1567 24.5254 15.2531 24.3335L16.8781 21.0835C16.921 20.9803 16.9848 20.8872 17.0654 20.8098C17.1459 20.7324 17.2416 20.6725 17.3464 20.6337C17.4512 20.595 17.5629 20.5783 17.6744 20.5847C17.786 20.591 17.895 20.6203 17.9947 20.6707C18.0944 20.7212 18.1827 20.7916 18.2539 20.8777C18.3252 20.9637 18.3779 21.0635 18.4089 21.1709C18.4398 21.2783 18.4483 21.3909 18.4337 21.5016C18.4192 21.6124 18.3819 21.719 18.3243 21.8147L16.6993 25.0647C16.6318 25.1987 16.5285 25.3114 16.4008 25.3903C16.2732 25.4692 16.1262 25.5112 15.9762 25.5116Z" fill="#1F1F24"/>
<path d="M24.9167 8.32734C24.9167 6.36785 23.5061 4.73723 21.6635 4.43091C21.085 1.86601 18.8283 0 16.1854 0C13.8216 0 11.7147 1.51694 10.9093 3.74232C8.16178 4.38097 5.9782 6.60299 5.40148 9.46717C2.96916 9.78454 1.08337 11.904 1.08337 14.463C1.08337 17.2404 3.30464 19.5 6.03496 19.5H19.0377C21.768 19.5 23.9893 17.2404 23.9893 14.463C23.9893 13.4207 23.6763 12.4514 23.1411 11.647C24.2325 10.9348 24.9167 9.70141 24.9167 8.32734ZM16.1855 1.49965C18.2869 1.49965 20.0572 3.09777 20.3034 5.21707L20.3802 5.87891H21.0354C22.3627 5.87891 23.4425 6.9773 23.4425 8.32734C23.4425 9.27196 22.9217 10.1098 22.1132 10.5184C21.4241 9.9613 20.5864 9.58659 19.6712 9.46712C18.9902 6.08522 16.069 3.59865 12.6244 3.55686C13.3598 2.30756 14.7038 1.49965 16.1855 1.49965ZM19.0377 18.0004H6.03496C4.11753 18.0004 2.5576 16.4135 2.5576 14.463C2.5576 12.5125 4.11763 10.9257 6.0352 10.9257H6.69035L6.76721 10.2639C7.11208 7.29463 9.59227 5.05556 12.5363 5.05556C15.4803 5.05556 17.9605 7.29463 18.3054 10.2639L18.3822 10.9257H19.0374C20.9549 10.9257 22.515 12.5125 22.515 14.463C22.515 16.4135 20.9551 18.0004 19.0377 18.0004Z" fill="#1F1F24"/>
</svg>
