<svg width="580" height="121" viewBox="0 0 580 121" fill="none" xmlns="http://www.w3.org/2000/svg">
<path d="M0.712002 6.60799H38.088V17.232H0.712002V6.60799ZM98.198 117.328L62.742 3.28H74.774L110.23 117.328H98.198ZM114.965 120.528V108.496H179.093V120.528H114.965ZM190.939 58.192C190.939 51.9627 191.494 45.9893 192.603 40.272C193.798 34.5547 195.419 29.2213 197.467 24.272C199.515 19.3227 201.904 14.8427 204.635 10.832C207.451 6.82133 210.48 3.45066 213.723 0.719994H226.907C223.408 3.96266 220.251 7.58933 217.435 11.6C214.619 15.6107 212.23 19.8773 210.267 24.4C208.304 28.9227 206.768 33.616 205.659 38.48C204.635 43.344 204.123 48.208 204.123 53.072V63.312C204.123 68.176 204.635 73.04 205.659 77.904C206.768 82.768 208.304 87.4613 210.267 91.984C212.23 96.5067 214.619 100.773 217.435 104.784C220.251 108.88 223.408 112.507 226.907 115.664H213.723C210.48 112.933 207.451 109.563 204.635 105.552C201.904 101.541 199.515 97.0613 197.467 92.112C195.419 87.1627 193.798 81.8293 192.603 76.112C191.494 70.3947 190.939 64.4213 190.939 58.192ZM284.115 1.87199L274.387 5.072C277.587 11.856 284.755 31.568 286.931 38.864L296.915 35.408C294.739 28.24 286.931 7.88799 284.115 1.87199ZM341.075 10.064L329.171 6.60799C326.739 25.936 318.803 46.416 308.691 59.344C295.763 75.728 276.691 88.016 258.515 93.392L267.219 102.224C285.395 95.824 304.211 82.64 317.395 65.232C328.019 51.408 334.803 33.232 338.771 17.232C339.283 15.312 340.179 12.112 341.075 10.064ZM248.403 9.55199L238.419 13.136C241.363 18.768 250.195 40.4 252.627 48.336L262.867 44.624C259.795 36.176 251.859 16.72 248.403 9.55199ZM388.819 58.192C388.819 64.4213 388.222 70.3947 387.027 76.112C385.918 81.8293 384.339 87.1627 382.291 92.112C380.243 97.0613 377.811 101.541 374.995 105.552C372.264 109.563 369.278 112.933 366.035 115.664H352.851C356.35 112.507 359.507 108.88 362.323 104.784C365.139 100.773 367.528 96.5067 369.491 91.984C371.454 87.4613 372.947 82.768 373.971 77.904C375.08 73.04 375.635 68.176 375.635 63.312V53.072C375.635 48.208 375.08 43.344 373.971 38.48C372.947 33.616 371.454 28.9227 369.491 24.4C367.528 19.8773 365.139 15.6107 362.323 11.6C359.507 7.58933 356.35 3.96266 352.851 0.719994H366.035C369.278 3.45066 372.264 6.82133 374.995 10.832C377.811 14.8427 380.243 19.3227 382.291 24.272C384.339 29.2213 385.918 34.5547 387.027 40.272C388.222 45.9893 388.819 51.9627 388.819 58.192ZM400.715 120.528V108.496H464.843V120.528H400.715ZM469.521 117.328L504.977 3.28H517.009L481.553 117.328H469.521ZM541.712 6.60799H579.088V17.232H541.712V6.60799Z" fill="#363636"/>
</svg>
