<svg width="26" height="26" viewBox="0 0 26 26" fill="none" xmlns="http://www.w3.org/2000/svg">
<path d="M4 25C4.55228 25 5 24.5523 5 24C5 23.4477 4.55228 23 4 23C3.44772 23 3 23.4477 3 24C3 24.5523 3.44772 25 4 25Z" fill="#1F1F24"/>
<path d="M7 22C7.55228 22 8 21.5523 8 21C8 20.4477 7.55228 20 7 20C6.44772 20 6 20.4477 6 21C6 21.5523 6.44772 22 7 22Z" fill="#1F1F24"/>
<path d="M10 25C10.5523 25 11 24.5523 11 24C11 23.4477 10.5523 23 10 23C9.44772 23 9 23.4477 9 24C9 24.5523 9.44772 25 10 25Z" fill="#1F1F24"/>
<path d="M13 22C13.5523 22 14 21.5523 14 21C14 20.4477 13.5523 20 13 20C12.4477 20 12 20.4477 12 21C12 21.5523 12.4477 22 13 22Z" fill="#1F1F24"/>
<path d="M16 25C16.5523 25 17 24.5523 17 24C17 23.4477 16.5523 23 16 23C15.4477 23 15 23.4477 15 24C15 24.5523 15.4477 25 16 25Z" fill="#1F1F24"/>
<path d="M19 22C19.5523 22 20 21.5523 20 21C20 20.4477 19.5523 20 19 20C18.4477 20 18 20.4477 18 21C18 21.5523 18.4477 22 19 22Z" fill="#1F1F24"/>
<path d="M24.9167 8.32734C24.9167 6.36785 23.5061 4.73723 21.6635 4.43091C21.085 1.86601 18.8283 0 16.1854 0C13.8216 0 11.7147 1.51694 10.9093 3.74232C8.16178 4.38097 5.9782 6.60299 5.40148 9.46717C2.96916 9.78454 1.08337 11.904 1.08337 14.463C1.08337 17.2404 3.30464 19.5 6.03496 19.5H19.0377C21.768 19.5 23.9893 17.2404 23.9893 14.463C23.9893 13.4207 23.6763 12.4514 23.1411 11.647C24.2325 10.9348 24.9167 9.70141 24.9167 8.32734ZM16.1855 1.49965C18.2869 1.49965 20.0572 3.09777 20.3034 5.21707L20.3802 5.87891H21.0354C22.3627 5.87891 23.4425 6.9773 23.4425 8.32734C23.4425 9.27196 22.9217 10.1098 22.1132 10.5184C21.4241 9.9613 20.5864 9.58659 19.6712 9.46712C18.9902 6.08522 16.069 3.59865 12.6244 3.55686C13.3598 2.30756 14.7038 1.49965 16.1855 1.49965ZM19.0377 18.0004H6.03496C4.11753 18.0004 2.5576 16.4135 2.5576 14.463C2.5576 12.5125 4.11763 10.9257 6.0352 10.9257H6.69035L6.76721 10.2639C7.11208 7.29463 9.59227 5.05556 12.5363 5.05556C15.4803 5.05556 17.9605 7.29463 18.3054 10.2639L18.3822 10.9257H19.0374C20.9549 10.9257 22.515 12.5125 22.515 14.463C22.515 16.4135 20.9551 18.0004 19.0377 18.0004Z" fill="#1F1F24"/>
</svg>
