<svg width="26" height="26" viewBox="0 0 26 26" fill="none" xmlns="http://www.w3.org/2000/svg">
<path d="M4 25.5C4.55228 25.5 5 25.0523 5 24.5C5 23.9477 4.55228 23.5 4 23.5C3.44772 23.5 3 23.9477 3 24.5C3 25.0523 3.44772 25.5 4 25.5Z" fill="#1F1F24"/>
<path d="M6 22.58C6.55228 22.58 7 22.1323 7 21.58C7 21.0277 6.55228 20.58 6 20.58C5.44772 20.58 5 21.0277 5 21.58C5 22.1323 5.44772 22.58 6 22.58Z" fill="#1F1F24"/>
<path d="M13 25.5C13.5523 25.5 14 25.0523 14 24.5C14 23.9477 13.5523 23.5 13 23.5C12.4477 23.5 12 23.9477 12 24.5C12 25.0523 12.4477 25.5 13 25.5Z" fill="#1F1F24"/>
<path d="M15 22.58C15.5523 22.58 16 22.1323 16 21.58C16 21.0277 15.5523 20.58 15 20.58C14.4477 20.58 14 21.0277 14 21.58C14 22.1323 14.4477 22.58 15 22.58Z" fill="#1F1F24"/>
<path d="M8.80955 25.5082C8.68208 25.5097 8.55631 25.479 8.44392 25.4188C8.25256 25.3214 8.10753 25.1522 8.04055 24.9482C7.97356 24.7442 7.99005 24.522 8.08642 24.3301L9.71142 21.0801C9.75437 20.9769 9.81814 20.8838 9.89873 20.8064C9.97932 20.729 10.075 20.6691 10.1798 20.6303C10.2846 20.5916 10.3963 20.5749 10.5078 20.5813C10.6194 20.5876 10.7284 20.6169 10.8281 20.6673C10.9278 20.7178 11.0161 20.7882 11.0873 20.8743C11.1586 20.9603 11.2113 21.0601 11.2422 21.1675C11.2732 21.2749 11.2816 21.3875 11.2671 21.4982C11.2525 21.609 11.2153 21.7156 11.1577 21.8113L9.53267 25.0613C9.46515 25.1953 9.36185 25.308 9.23421 25.3869C9.10658 25.4658 8.95959 25.5078 8.80955 25.5082Z" fill="#1F1F24"/>
<path d="M17.8096 25.5082C17.6821 25.5097 17.5563 25.479 17.4439 25.4188C17.2526 25.3214 17.1075 25.1522 17.0406 24.9482C16.9736 24.7442 16.9901 24.522 17.0864 24.3301L18.7114 21.0801C18.7544 20.9769 18.8181 20.8838 18.8987 20.8064C18.9793 20.729 19.075 20.6691 19.1798 20.6303C19.2846 20.5916 19.3963 20.5749 19.5078 20.5813C19.6194 20.5876 19.7284 20.6169 19.8281 20.6673C19.9278 20.7178 20.0161 20.7882 20.0873 20.8743C20.1586 20.9603 20.2113 21.0601 20.2422 21.1675C20.2732 21.2749 20.2816 21.3875 20.2671 21.4982C20.2525 21.609 20.2153 21.7156 20.1577 21.8113L18.5327 25.0613C18.4652 25.1953 18.3619 25.308 18.2342 25.3869C18.1066 25.4658 17.9596 25.5078 17.8096 25.5082Z" fill="#1F1F24"/>
<path d="M24.9167 8.32734C24.9167 6.36785 23.5061 4.73723 21.6635 4.43091C21.085 1.86601 18.8283 0 16.1854 0C13.8216 0 11.7147 1.51694 10.9093 3.74232C8.16178 4.38097 5.9782 6.60299 5.40148 9.46717C2.96916 9.78454 1.08337 11.904 1.08337 14.463C1.08337 17.2404 3.30464 19.5 6.03496 19.5H19.0377C21.768 19.5 23.9893 17.2404 23.9893 14.463C23.9893 13.4207 23.6763 12.4514 23.1411 11.647C24.2325 10.9348 24.9167 9.70141 24.9167 8.32734ZM16.1855 1.49965C18.2869 1.49965 20.0572 3.09777 20.3034 5.21707L20.3802 5.87891H21.0354C22.3627 5.87891 23.4425 6.9773 23.4425 8.32734C23.4425 9.27196 22.9217 10.1098 22.1132 10.5184C21.4241 9.9613 20.5864 9.58659 19.6712 9.46712C18.9902 6.08522 16.069 3.59865 12.6244 3.55686C13.3598 2.30756 14.7038 1.49965 16.1855 1.49965ZM19.0377 18.0004H6.03496C4.11753 18.0004 2.5576 16.4135 2.5576 14.463C2.5576 12.5125 4.11763 10.9257 6.0352 10.9257H6.69035L6.76721 10.2639C7.11208 7.29463 9.59227 5.05556 12.5363 5.05556C15.4803 5.05556 17.9605 7.29463 18.3054 10.2639L18.3822 10.9257H19.0374C20.9549 10.9257 22.515 12.5125 22.515 14.463C22.515 16.4135 20.9551 18.0004 19.0377 18.0004Z" fill="#1F1F24"/>
</svg>
