<svg width="26" height="26" viewBox="0 0 26 26" fill="none" xmlns="http://www.w3.org/2000/svg">
<g clip-path="url(#clip0_21_8)">
<path d="M13 5.80486C9.03257 5.80486 5.80481 9.03261 5.80481 13C5.80481 16.9674 9.03257 20.1951 13 20.1951C16.9673 20.1951 20.195 16.9674 20.195 13C20.195 9.03261 16.9673 5.80486 13 5.80486ZM13 18.1266C10.1732 18.1266 7.87338 15.8268 7.87338 13C7.87338 10.1732 10.1732 7.87343 13 7.87343C15.8267 7.87343 18.1265 10.1732 18.1265 13C18.1265 15.8268 15.8267 18.1266 13 18.1266Z" fill="#1F1F24"/>
<path d="M13 4.92604C13.5712 4.92604 14.0343 4.46296 14.0343 3.89172V1.03426C14.0343 0.463074 13.5712 0 13 0C12.4288 0 11.9657 0.463074 11.9657 1.03431V3.89177C11.9657 4.46296 12.4288 4.92604 13 4.92604Z" fill="#1F1F24"/>
<path d="M19.4405 7.59383C19.7052 7.59383 19.9699 7.49287 20.1718 7.29087L22.1924 5.27028C22.5963 4.86637 22.5963 4.21149 22.1924 3.80758C21.7885 3.40366 21.1336 3.40366 20.7296 3.80758L18.7091 5.82816C18.3051 6.23208 18.3051 6.88695 18.7091 7.29087C18.9111 7.49287 19.1758 7.59383 19.4405 7.59383Z" fill="#1F1F24"/>
<path d="M24.9657 11.9657H22.1083C21.5371 11.9657 21.074 12.4288 21.074 13C21.074 13.5712 21.537 14.0343 22.1083 14.0343H24.9657C25.5369 14.0343 26.0001 13.5712 26.0001 13C26.0001 12.4288 25.537 11.9657 24.9657 11.9657Z" fill="#1F1F24"/>
<path d="M20.1719 18.7091C19.768 18.3052 19.1131 18.3053 18.7092 18.7091C18.3053 19.113 18.3053 19.7679 18.7092 20.1718L20.7298 22.1924C20.9317 22.3944 21.1965 22.4954 21.4611 22.4954C21.7257 22.4954 21.9905 22.3944 22.1924 22.1924C22.5963 21.7886 22.5963 21.1336 22.1924 20.7297L20.1719 18.7091Z" fill="#1F1F24"/>
<path d="M13 21.074C12.4288 21.074 11.9657 21.537 11.9657 22.1083V24.9657C11.9657 25.5369 12.4288 26.0001 13 26.0001C13.5712 26.0001 14.0343 25.537 14.0343 24.9657V22.1083C14.0343 21.537 13.5712 21.074 13 21.074Z" fill="#1F1F24"/>
<path d="M5.82816 18.7091L3.80757 20.7297C3.40366 21.1336 3.40366 21.7885 3.80757 22.1924C4.00953 22.3944 4.27425 22.4954 4.53887 22.4954C4.8035 22.4954 5.06827 22.3944 5.27018 22.1924L7.29076 20.1718C7.69468 19.7679 7.69468 19.113 7.29076 18.7091C6.887 18.3052 6.23207 18.3052 5.82816 18.7091Z" fill="#1F1F24"/>
<path d="M4.92604 13C4.92604 12.4288 4.46296 11.9657 3.89172 11.9657H1.03426C0.463074 11.9657 0 12.4288 0 13C0 13.5712 0.463074 14.0343 1.03431 14.0343H3.89177C4.46296 14.0343 4.92604 13.5712 4.92604 13Z" fill="#1F1F24"/>
<path d="M5.82818 7.29087C6.03014 7.49282 6.29486 7.59383 6.55958 7.59383C6.8242 7.59383 7.08898 7.49282 7.29088 7.29092C7.6948 6.887 7.6948 6.23213 7.29088 5.82821L5.2704 3.80758C4.86654 3.40371 4.21161 3.40366 3.8077 3.80758C3.40378 4.21149 3.40378 4.86637 3.8077 5.27028L5.82818 7.29087Z" fill="#1F1F24"/>
</g>
<defs>
<clipPath id="clip0_21_8">
<rect width="26" height="26" fill="white"/>
</clipPath>
</defs>
</svg>
