<svg width="26" height="26" viewBox="0 0 26 26" fill="none" xmlns="http://www.w3.org/2000/svg">
<path d="M24.9167 8.32734C24.9167 6.36785 23.5061 4.73723 21.6635 4.43091C21.085 1.86601 18.8283 0 16.1854 0C13.8216 0 11.7147 1.51694 10.9093 3.74232C8.16178 4.38097 5.9782 6.60299 5.40148 9.46717C2.96916 9.78454 1.08337 11.904 1.08337 14.463C1.08337 17.2404 3.30464 19.5 6.03496 19.5H19.0377C21.768 19.5 23.9893 17.2404 23.9893 14.463C23.9893 13.4207 23.6763 12.4514 23.1411 11.647C24.2325 10.9348 24.9167 9.70141 24.9167 8.32734ZM16.1855 1.49965C18.2869 1.49965 20.0572 3.09777 20.3034 5.21707L20.3802 5.87891H21.0354C22.3627 5.87891 23.4425 6.9773 23.4425 8.32734C23.4425 9.27196 22.9217 10.1098 22.1132 10.5184C21.4241 9.9613 20.5864 9.58659 19.6712 9.46712C18.9902 6.08522 16.069 3.59865 12.6244 3.55686C13.3598 2.30756 14.7038 1.49965 16.1855 1.49965ZM19.0377 18.0004H6.03496C4.11753 18.0004 2.5576 16.4135 2.5576 14.463C2.5576 12.5125 4.11763 10.9257 6.0352 10.9257H6.69035L6.76721 10.2639C7.11208 7.29463 9.59227 5.05556 12.5363 5.05556C15.4803 5.05556 17.9605 7.29463 18.3054 10.2639L18.3822 10.9257H19.0374C20.9549 10.9257 22.515 12.5125 22.515 14.463C22.515 16.4135 20.9551 18.0004 19.0377 18.0004Z" fill="#1F1F24"/>
<path d="M5 25L7 23H5L7 21" stroke="#1F1F24" stroke-miterlimit="10" stroke-linecap="round" stroke-linejoin="round"/>
<path d="M11 25L13 23H11L13 21" stroke="#1F1F24" stroke-miterlimit="10" stroke-linecap="round" stroke-linejoin="round"/>
<path d="M17 25L19 23H17L19 21" stroke="#1F1F24" stroke-miterlimit="10" stroke-linecap="round" stroke-linejoin="round"/>
</svg>
