<svg width="30" height="27" viewBox="0 0 30 27" fill="none" xmlns="http://www.w3.org/2000/svg">
<path d="M29.988 20.3475C29.9852 20.3277 29.9829 20.3078 29.9789 20.2881C29.9753 20.2704 29.9704 20.2533 29.9661 20.236C29.9617 20.2191 29.958 20.2021 29.9529 20.1853C29.9477 20.1682 29.9412 20.1517 29.9351 20.1349C29.9291 20.1184 29.9237 20.1017 29.9169 20.0854C29.9103 20.0696 29.9026 20.0545 29.8953 20.0392C29.8874 20.0226 29.8799 20.0057 29.8711 19.9894C29.8631 19.9746 29.854 19.9606 29.8453 19.9461C29.8357 19.9302 29.8266 19.9141 29.8162 19.8986C29.8054 19.8825 29.7934 19.8672 29.7815 19.8518C29.7719 19.8391 29.763 19.826 29.7527 19.8136C29.7299 19.7859 29.7057 19.7592 29.6802 19.7339L24.2259 14.3173C23.7999 13.8942 23.1092 13.8942 22.6831 14.3173C22.2571 14.7403 22.2571 15.4263 22.6831 15.8494L26.2755 19.4165H7.09092C6.48844 19.4166 6 19.9016 6 20.4999C6 21.0982 6.48844 21.5833 7.09092 21.5833H26.2755L22.6832 25.1507C22.2571 25.5737 22.2571 26.2597 22.6832 26.6827C22.8962 26.8942 23.1754 27 23.4546 27C23.7338 27 24.013 26.8943 24.2259 26.6827L29.6802 21.2662C29.7058 21.2409 29.7299 21.2142 29.7528 21.1865C29.7631 21.1741 29.772 21.161 29.7815 21.1483C29.7933 21.1328 29.8054 21.1176 29.8162 21.1015C29.8268 21.086 29.8359 21.0698 29.8454 21.0539C29.854 21.0396 29.8631 21.0255 29.8711 21.0107C29.8799 20.9943 29.8874 20.9776 29.8954 20.9608C29.9026 20.9455 29.9104 20.9304 29.917 20.9147C29.9237 20.8984 29.9292 20.8817 29.9352 20.8651C29.9412 20.8483 29.9477 20.8318 29.953 20.8147C29.958 20.7979 29.9618 20.7809 29.9661 20.764C29.9705 20.7467 29.9754 20.7295 29.9789 20.7119C29.9829 20.6922 29.9853 20.6723 29.988 20.6524C29.9902 20.6373 29.9931 20.6224 29.9947 20.6071C30.0018 20.5359 30.0018 20.4642 29.9947 20.393C29.993 20.3775 29.9901 20.3626 29.988 20.3475Z" fill="#363636"/>
<path d="M0.19143 5.89853C0.180444 5.91408 0.170972 5.93018 0.161059 5.9461C0.152124 5.96049 0.142651 5.97455 0.134253 5.98935C0.125073 6.00573 0.117261 6.02258 0.109009 6.0392C0.10144 6.05452 0.0933837 6.0696 0.0864989 6.08533C0.0794677 6.10167 0.0737548 6.11834 0.0675536 6.13495C0.061206 6.15171 0.0544677 6.16824 0.048999 6.18537C0.0437744 6.20212 0.0398193 6.21912 0.0352783 6.23601C0.0307373 6.25333 0.0256592 6.27055 0.0219482 6.28815C0.0177978 6.30788 0.0153564 6.32771 0.0124756 6.34759C0.0101807 6.36277 0.00715331 6.37762 0.00549316 6.39293C-0.00183105 6.46415 -0.00183105 6.53584 0.00549316 6.60706C0.00715331 6.62237 0.0101318 6.63727 0.0124756 6.6524C0.0153564 6.67227 0.0177978 6.6921 0.0219482 6.71184C0.0256592 6.72953 0.0307373 6.74666 0.0352783 6.76398C0.0398193 6.78087 0.0436767 6.79786 0.048999 6.81462C0.0544677 6.83175 0.061206 6.84828 0.0675536 6.86503C0.0737548 6.88156 0.0794677 6.89827 0.0864989 6.91466C0.0933837 6.93039 0.10144 6.94552 0.109009 6.96079C0.117261 6.97745 0.125073 6.9943 0.134253 7.01064C0.142602 7.02544 0.152075 7.03945 0.161059 7.05388C0.171069 7.06985 0.180542 7.08596 0.19143 7.10146C0.202661 7.11756 0.21521 7.13278 0.227563 7.14824C0.237573 7.16095 0.246802 7.17403 0.257495 7.18646C0.281372 7.21411 0.306421 7.24083 0.333032 7.2661L6.01462 12.6827C6.23649 12.8943 6.52736 13 6.81818 13C7.109 13 7.39987 12.8943 7.62165 12.6827C8.06545 12.2597 8.06545 11.5737 7.62165 11.1506L3.87976 7.58338H23.8636C24.4912 7.58338 25 7.09834 25 6.50004C25 5.90174 24.4912 5.4167 23.8636 5.4167H3.87976L7.62165 1.84935C8.06545 1.42635 8.06545 0.740355 7.62165 0.317315C7.17795 -0.105772 6.45837 -0.105772 6.01462 0.317315L0.333032 5.73384C0.306421 5.75911 0.281274 5.78579 0.257495 5.81348C0.246753 5.82591 0.237475 5.83899 0.227563 5.8517C0.215307 5.86716 0.20271 5.88242 0.19143 5.89853Z" fill="#363636"/>
</svg>
