<svg width="26" height="26" viewBox="0 0 26 26" fill="none" xmlns="http://www.w3.org/2000/svg">
<g clip-path="url(#clip0_261_52)">
<path d="M17.4995 3.79553C14.9054 3.79553 12.7949 5.90598 12.7949 8.50003C12.7949 11.0941 14.9054 13.2045 17.4995 13.2045C20.0934 13.2045 22.2039 11.0941 22.2039 8.50003C22.2039 5.90598 20.0934 3.79553 17.4995 3.79553ZM17.4995 11.852C15.6512 11.852 14.1474 10.3483 14.1474 8.50003C14.1474 6.65174 15.6512 5.14805 17.4995 5.14805C19.3477 5.14805 20.8514 6.65174 20.8514 8.50003C20.8514 10.3483 19.3477 11.852 17.4995 11.852Z" fill="#1F1F24"/>
<path d="M17.5 3.22098C17.8735 3.22098 18.1763 2.9182 18.1763 2.5447V0.676366C18.1763 0.3029 17.8735 0.00012207 17.5 0.00012207C17.1265 0.00012207 16.8237 0.3029 16.8237 0.676399V2.54473C16.8237 2.9182 17.1265 3.22098 17.5 3.22098Z" fill="#1F1F24"/>
<path d="M21.7112 4.96519C21.8843 4.96519 22.0574 4.89918 22.1894 4.76711L23.5106 3.44596C23.7746 3.18186 23.7746 2.75367 23.5106 2.48958C23.2465 2.22548 22.8183 2.22548 22.5541 2.48958L21.233 3.81072C20.9689 4.07482 20.9689 4.50301 21.233 4.76711C21.3651 4.89918 21.5382 4.96519 21.7112 4.96519Z" fill="#1F1F24"/>
<path d="M25.3239 7.82373H23.4556C23.0821 7.82373 22.7793 8.12653 22.7793 8.5C22.7793 8.87348 23.082 9.17627 23.4556 9.17627H25.3239C25.6973 9.17627 26.0002 8.87348 26.0002 8.5C26.0002 8.12653 25.6974 7.82373 25.3239 7.82373Z" fill="#1F1F24"/>
<path d="M22.1894 12.2334C21.9253 11.9694 21.4971 11.9694 21.233 12.2334C20.9689 12.4975 20.9689 12.9257 21.233 13.1898L22.5541 14.511C22.6861 14.6431 22.8593 14.7091 23.0323 14.7091C23.2053 14.7091 23.3784 14.6431 23.5104 14.511C23.7745 14.247 23.7745 13.8187 23.5104 13.5546L22.1894 12.2334Z" fill="#1F1F24"/>
<path d="M17.5 13.7793C17.1265 13.7793 16.8237 14.082 16.8237 14.4556V16.3239C16.8237 16.6973 17.1265 17.0002 17.5 17.0002C17.8735 17.0002 18.1763 16.6974 18.1763 16.3239V14.4556C18.1763 14.082 17.8735 13.7793 17.5 13.7793Z" fill="#1F1F24"/>
<path d="M12.8105 12.2327L11.4893 13.5539C11.2252 13.818 11.2252 14.2462 11.4893 14.5103C11.6214 14.6423 11.7945 14.7084 11.9675 14.7084C12.1405 14.7084 12.3136 14.6423 12.4456 14.5103L13.7668 13.1891C14.0309 12.925 14.0309 12.4968 13.7668 12.2327C13.5028 11.9686 13.0746 11.9686 12.8105 12.2327Z" fill="#1F1F24"/>
<path d="M12.2209 8.5C12.2209 8.12653 11.9181 7.82373 11.5446 7.82373H9.67624C9.30278 7.82373 9 8.12653 9 8.5C9 8.87348 9.30278 9.17627 9.67628 9.17627H11.5446C11.9181 9.17627 12.2209 8.87348 12.2209 8.5Z" fill="#1F1F24"/>
<path d="M12.8107 4.76709C12.9427 4.89914 13.1158 4.96518 13.2889 4.96518C13.4619 4.96518 13.635 4.89914 13.767 4.76713C14.0311 4.50303 14.0311 4.07484 13.767 3.81074L12.446 2.48957C12.1819 2.2255 11.7537 2.22547 11.4896 2.48957C11.2255 2.75366 11.2255 3.18185 11.4896 3.44594L12.8107 4.76709Z" fill="#1F1F24"/>
<rect x="1" y="13" width="24" height="9" rx="4.5" fill="white"/>
<ellipse cx="12.5" cy="12.5" rx="6.5" ry="5.5" fill="white"/>
<mask id="path-12-outside-1_261_52" maskUnits="userSpaceOnUse" x="-0.899902" y="5.40002" width="27" height="19" fill="black">
<rect fill="white" x="-0.899902" y="5.40002" width="27" height="19"/>
<path d="M12.6079 7.87829C13.0045 7.87821 13.4 7.91535 13.7888 7.98916C15.0174 8.21154 16.1472 8.77689 17.0324 9.6122C17.9176 10.4475 18.5175 11.5145 18.7547 12.6752L18.9581 13.6731L20.0138 13.8505C21.0802 14.0238 22.0382 14.5706 22.697 15.3819C23.3557 16.1931 23.6667 17.2092 23.5681 18.2276C23.4694 19.2459 22.9683 20.1918 22.1646 20.8764C21.3609 21.5611 20.3137 21.9344 19.2318 21.9218H5.96058C4.87867 21.9344 3.83148 21.5611 3.02779 20.8764C2.22411 20.1918 1.72297 19.2459 1.6243 18.2276C1.52563 17.2092 1.83667 16.1931 2.49542 15.3819C3.15416 14.5706 4.11221 14.0238 5.17854 13.8505L6.22648 13.6731L6.42981 12.6752C6.70541 11.3199 7.47396 10.0984 8.60229 9.22228C9.73063 8.34619 11.1477 7.87074 12.6079 7.87829M12.6079 6.40003C10.7878 6.3986 9.02418 6.99724 7.62091 8.09279C6.21765 9.18835 5.26265 10.7122 4.92047 12.4018C3.48021 12.6482 2.1895 13.3947 1.30184 14.4947C0.414174 15.5946 -0.00628147 16.9684 0.123053 18.3464C0.252386 19.7243 0.922163 21.0068 2.00083 21.9419C3.07949 22.8769 4.48909 23.397 5.95276 23.4H19.2474C20.7111 23.397 22.1207 22.8769 23.1994 21.9419C24.278 21.0068 24.9478 19.7243 25.0771 18.3464C25.2065 16.9684 24.786 15.5946 23.8984 14.4947C23.0107 13.3947 21.72 12.6482 20.2797 12.4018C19.9852 10.9485 19.2359 9.61224 18.1288 8.56594C17.0218 7.51964 15.608 6.81146 14.0703 6.53307C13.5882 6.44659 13.0987 6.40205 12.6079 6.40003V6.40003Z"/>
</mask>
<path d="M12.6079 7.87829C13.0045 7.87821 13.4 7.91535 13.7888 7.98916C15.0174 8.21154 16.1472 8.77689 17.0324 9.6122C17.9176 10.4475 18.5175 11.5145 18.7547 12.6752L18.9581 13.6731L20.0138 13.8505C21.0802 14.0238 22.0382 14.5706 22.697 15.3819C23.3557 16.1931 23.6667 17.2092 23.5681 18.2276C23.4694 19.2459 22.9683 20.1918 22.1646 20.8764C21.3609 21.5611 20.3137 21.9344 19.2318 21.9218H5.96058C4.87867 21.9344 3.83148 21.5611 3.02779 20.8764C2.22411 20.1918 1.72297 19.2459 1.6243 18.2276C1.52563 17.2092 1.83667 16.1931 2.49542 15.3819C3.15416 14.5706 4.11221 14.0238 5.17854 13.8505L6.22648 13.6731L6.42981 12.6752C6.70541 11.3199 7.47396 10.0984 8.60229 9.22228C9.73063 8.34619 11.1477 7.87074 12.6079 7.87829M12.6079 6.40003C10.7878 6.3986 9.02418 6.99724 7.62091 8.09279C6.21765 9.18835 5.26265 10.7122 4.92047 12.4018C3.48021 12.6482 2.1895 13.3947 1.30184 14.4947C0.414174 15.5946 -0.00628147 16.9684 0.123053 18.3464C0.252386 19.7243 0.922163 21.0068 2.00083 21.9419C3.07949 22.8769 4.48909 23.397 5.95276 23.4H19.2474C20.7111 23.397 22.1207 22.8769 23.1994 21.9419C24.278 21.0068 24.9478 19.7243 25.0771 18.3464C25.2065 16.9684 24.786 15.5946 23.8984 14.4947C23.0107 13.3947 21.72 12.6482 20.2797 12.4018C19.9852 10.9485 19.2359 9.61224 18.1288 8.56594C17.0218 7.51964 15.608 6.81146 14.0703 6.53307C13.5882 6.44659 13.0987 6.40205 12.6079 6.40003V6.40003Z" fill="#1F1F24"/>
<path d="M13.7888 7.98916L13.6396 8.77515L13.6463 8.77636L13.7888 7.98916ZM18.7547 12.6752L19.5386 12.5155L19.5385 12.5151L18.7547 12.6752ZM18.9581 13.6731L18.1742 13.8328L18.2839 14.371L18.8255 14.462L18.9581 13.6731ZM20.0138 13.8505L19.8813 14.6394L19.8855 14.6401L20.0138 13.8505ZM19.2318 21.9218L19.2411 21.1218H19.2318V21.9218ZM5.96058 21.9218L5.96058 21.1217L5.95127 21.1218L5.96058 21.9218ZM5.17854 13.8505L5.3069 14.6401L5.31207 14.6392L5.17854 13.8505ZM6.22648 13.6731L6.36 14.4618L6.90084 14.3703L7.01037 13.8328L6.22648 13.6731ZM6.42981 12.6752L7.2137 12.835L7.21376 12.8347L6.42981 12.6752ZM4.92047 12.4018L5.0554 13.1903L5.59574 13.0978L5.70455 12.5606L4.92047 12.4018ZM5.95276 23.4L5.95113 24.2H5.95276V23.4ZM19.2474 23.4L19.2474 24.2L19.2491 24.2L19.2474 23.4ZM20.2797 12.4018L19.4957 12.5607L19.6045 13.0979L20.1448 13.1903L20.2797 12.4018ZM14.0703 6.53307L14.2129 5.74587L14.2116 5.74564L14.0703 6.53307ZM12.6081 8.67829C12.9546 8.67822 13.3002 8.71068 13.6396 8.77512L13.938 7.20319C13.4999 7.12002 13.0543 7.0782 12.6078 7.07829L12.6081 8.67829ZM13.6463 8.77636C14.7265 8.97189 15.7139 9.468 16.4833 10.194L17.5814 9.03036C16.5804 8.08577 15.3082 7.45119 13.9313 7.20195L13.6463 8.77636ZM16.4833 10.194C17.2522 10.9196 17.7676 11.8406 17.971 12.8354L19.5385 12.5151C19.2674 11.1883 18.5829 9.97542 17.5814 9.03036L16.4833 10.194ZM17.9709 12.835L18.1742 13.8328L19.742 13.5133L19.5386 12.5155L17.9709 12.835ZM18.8255 14.462L19.8813 14.6394L20.1464 13.0615L19.0906 12.8841L18.8255 14.462ZM19.8855 14.6401C20.7653 14.7831 21.5454 15.2328 22.0759 15.8861L23.318 14.8776C22.5311 13.9084 21.395 13.2645 20.1422 13.0608L19.8855 14.6401ZM22.0759 15.8861C22.6053 16.5381 22.8497 17.3463 22.7718 18.1504L24.3643 18.3047C24.4838 17.0721 24.1061 15.8482 23.318 14.8776L22.0759 15.8861ZM22.7718 18.1504C22.6938 18.955 22.2971 19.7126 21.6458 20.2675L22.6834 21.4854C23.6394 20.6709 24.245 19.5369 24.3643 18.3047L22.7718 18.1504ZM21.6458 20.2675C20.9932 20.8234 20.135 21.1322 19.2411 21.1218L19.2225 22.7217C20.4925 22.7365 21.7286 22.2988 22.6834 21.4854L21.6458 20.2675ZM19.2318 21.1218H5.96058V22.7218H19.2318V21.1218ZM5.95127 21.1218C5.05742 21.1322 4.19914 20.8234 3.54659 20.2675L2.50899 21.4854C3.46382 22.2988 4.69992 22.7365 5.9699 22.7217L5.95127 21.1218ZM3.54659 20.2675C2.89526 19.7126 2.49853 18.955 2.42057 18.1504L0.828027 18.3047C0.947411 19.5369 1.55295 20.6709 2.50899 21.4854L3.54659 20.2675ZM2.42057 18.1504C2.34266 17.3463 2.5871 16.5381 3.11646 15.8861L1.87437 14.8776C1.08624 15.8482 0.708596 17.0721 0.828027 18.3047L2.42057 18.1504ZM3.11646 15.8861C3.64701 15.2328 4.42704 14.7831 5.3069 14.6401L5.05019 13.0608C3.79737 13.2645 2.66131 13.9084 1.87437 14.8776L3.11646 15.8861ZM5.31207 14.6392L6.36 14.4618L6.09295 12.8843L5.04502 13.0617L5.31207 14.6392ZM7.01037 13.8328L7.2137 12.835L5.64592 12.5155L5.44259 13.5133L7.01037 13.8328ZM7.21376 12.8347C7.44989 11.6734 8.11029 10.6171 9.09292 9.85417L8.11167 8.59039C6.83762 9.57961 5.96093 10.9664 5.64585 12.5158L7.21376 12.8347ZM9.09292 9.85417C10.0764 9.09053 11.3183 8.67163 12.6038 8.67828L12.6121 7.0783C10.977 7.06984 9.38483 7.60185 8.11167 8.59039L9.09292 9.85417ZM12.6085 5.60003C10.6141 5.59846 8.67603 6.25411 7.12861 7.46221L8.11322 8.72337C9.37232 7.74037 10.9615 7.19873 12.6073 7.20003L12.6085 5.60003ZM7.12861 7.46221C5.58031 8.671 4.51778 10.3598 4.13639 12.243L5.70455 12.5606C6.00752 11.0646 6.855 9.7057 8.11322 8.72337L7.12861 7.46221ZM4.78554 11.6132C3.16044 11.8913 1.69369 12.7352 0.679277 13.9922L1.92439 14.9971C2.6853 14.0542 3.79998 13.4051 5.0554 13.1903L4.78554 11.6132ZM0.679277 13.9922C-0.336295 15.2507 -0.822734 16.8306 -0.673447 18.4212L0.919552 18.2716C0.810171 17.1063 1.16464 15.9385 1.92439 14.9971L0.679277 13.9922ZM-0.673447 18.4212C-0.524203 20.0112 0.247948 21.4811 1.47681 22.5464L2.52484 21.3374C1.59638 20.5325 1.02898 19.4375 0.919552 18.2716L-0.673447 18.4212ZM1.47681 22.5464C2.70449 23.6106 4.30084 24.1967 5.95113 24.2L5.95439 22.6C4.67735 22.5974 3.4545 22.1433 2.52484 21.3374L1.47681 22.5464ZM5.95276 24.2H19.2474V22.6H5.95276V24.2ZM19.2491 24.2C20.8994 24.1967 22.4957 23.6106 23.7234 22.5464L22.6754 21.3374C21.7457 22.1433 20.5229 22.5974 19.2458 22.6L19.2491 24.2ZM23.7234 22.5464C24.9522 21.4811 25.7244 20.0112 25.8736 18.4212L24.2806 18.2716C24.1712 19.4375 23.6038 20.5325 22.6754 21.3374L23.7234 22.5464ZM25.8736 18.4212C26.0229 16.8306 25.5365 15.2507 24.5209 13.9922L23.2758 14.9971C24.0356 15.9385 24.39 17.1063 24.2806 18.2716L25.8736 18.4212ZM24.5209 13.9922C23.5065 12.7352 22.0398 11.8913 20.4147 11.6132L20.1448 13.1903C21.4002 13.4051 22.5149 14.0542 23.2758 14.9971L24.5209 13.9922ZM21.0638 12.2428C20.7355 10.6233 19.9018 9.14082 18.6784 7.98453L17.5793 9.14735C18.57 10.0837 19.2348 11.2737 19.4957 12.5607L21.0638 12.2428ZM18.6784 7.98453C17.4554 6.82871 15.8991 6.05116 14.2129 5.74587L13.9278 7.32027C15.3169 7.57176 16.5882 8.21056 17.5793 9.14735L18.6784 7.98453ZM14.2116 5.74564C13.6838 5.65097 13.1481 5.60225 12.6112 5.60003L12.6046 7.20002C13.0492 7.20186 13.4926 7.2422 13.9291 7.3205L14.2116 5.74564Z" fill="white" mask="url(#path-12-outside-1_261_52)"/>
</g>
<defs>
<clipPath id="clip0_261_52">
<rect width="26" height="26" fill="white"/>
</clipPath>
</defs>
</svg>
