<svg width="26" height="26" viewBox="0 0 26 26" fill="none" xmlns="http://www.w3.org/2000/svg">
<path d="M24.9166 8.32734C24.9166 6.36785 23.506 4.73723 21.6634 4.43091C21.0849 1.86601 18.8282 0 16.1853 0C13.8215 0 11.7146 1.51694 10.9092 3.74232C8.16166 4.38097 5.97808 6.60299 5.40136 9.46717C2.96904 9.78454 1.08325 11.904 1.08325 14.463C1.08325 17.2404 3.30452 19.5 6.03484 19.5H19.0376C21.7679 19.5 23.9892 17.2404 23.9892 14.463C23.9892 13.4207 23.6762 12.4514 23.141 11.647C24.2324 10.9348 24.9166 9.70141 24.9166 8.32734ZM16.1854 1.49965C18.2868 1.49965 20.0571 3.09777 20.3033 5.21707L20.3801 5.87891H21.0353C22.3626 5.87891 23.4424 6.9773 23.4424 8.32734C23.4424 9.27196 22.9216 10.1098 22.1131 10.5184C21.424 9.9613 20.5863 9.58659 19.6711 9.46712C18.9901 6.08522 16.0689 3.59865 12.6243 3.55686C13.3597 2.30756 14.7037 1.49965 16.1854 1.49965ZM19.0376 18.0004H6.03484C4.11741 18.0004 2.55748 16.4135 2.55748 14.463C2.55748 12.5125 4.11751 10.9257 6.03508 10.9257H6.69023L6.76709 10.2639C7.11196 7.29463 9.59215 5.05556 12.5362 5.05556C15.4802 5.05556 17.9604 7.29463 18.3053 10.2639L18.3821 10.9257H19.0373C20.9548 10.9257 22.5149 12.5125 22.5149 14.463C22.5149 16.4135 20.955 18.0004 19.0376 18.0004Z" fill="#1F1F24"/>
<path d="M6.79389 20.8316L7.99596 21.7049C8.17121 21.8322 8.24454 22.0579 8.1776 22.2639L7.71845 23.6771C7.65151 23.8831 7.45953 24.0225 7.24292 24.0225H5.75708C5.54047 24.0225 5.34849 23.8831 5.28155 23.6771L4.8224 22.2639C4.75546 22.0579 4.82879 21.8322 5.00404 21.7049L6.20611 20.8316C6.38135 20.7042 6.61865 20.7042 6.79389 20.8316Z" fill="white" stroke="#1F1F24"/>
<path d="M12.7939 20.8316L13.996 21.7049C14.1712 21.8322 14.2445 22.0579 14.1776 22.2639L13.7184 23.6771C13.6515 23.8831 13.4595 24.0225 13.2429 24.0225H11.7571C11.5405 24.0225 11.3485 23.8831 11.2816 23.6771L10.8224 22.2639C10.7555 22.0579 10.8288 21.8322 11.004 21.7049L12.2061 20.8316C12.3814 20.7042 12.6186 20.7042 12.7939 20.8316Z" fill="white" stroke="#1F1F24"/>
<path d="M18.7939 20.8316L19.996 21.7049C20.1712 21.8322 20.2445 22.0579 20.1776 22.2639L19.7184 23.6771C19.6515 23.8831 19.4595 24.0225 19.2429 24.0225H17.7571C17.5405 24.0225 17.3485 23.8831 17.2816 23.6771L16.8224 22.2639C16.7555 22.0579 16.8288 21.8322 17.004 21.7049L18.2061 20.8316C18.3814 20.7042 18.6186 20.7042 18.7939 20.8316Z" fill="white" stroke="#1F1F24"/>
</svg>
